<?xml version="1.0" encoding="UTF-8" standalone="no"?>
<!DOCTYPE svg PUBLIC "-//W3C//DTD SVG 1.1//EN" "http://www.w3.org/Graphics/SVG/1.1/DTD/svg11.dtd">
<svg width="100%" height="100%" viewBox="0 0 353 277" version="1.1" xmlns="http://www.w3.org/2000/svg" xmlns:xlink="http://www.w3.org/1999/xlink" xml:space="preserve" xmlns:serif="http://www.serif.com/" style="fill-rule:evenodd;clip-rule:evenodd;stroke-linejoin:round;stroke-miterlimit:2;">
    <g transform="matrix(1,0,0,1,-44.939654,-90.066216)">
        <g transform="matrix(0.025,0,0,-0.025,0,500)">
            <path d="M7945,13719C7764,13687 7661,13662 7470,13604C7242,13534 7143,13499 7026,13445C6994,13430 6949,13412 6926,13404C6903,13396 6807,13348 6712,13298C6173,13015 5685,12599 5297,12095C5189,11954 5191,11957 5108,11835C4905,11535 4740,11222 4604,10877C4460,10513 4361,10113 4315,9710C4292,9516 4284,9101 4299,8900C4354,8158 4586,7540 5038,6927C5186,6727 5454,6446 5656,6279C5752,6199 5961,6049 6095,5963C6391,5774 6795,5593 7147,5491C7693,5335 7762,5325 8340,5325C8748,5325 8782,5326 8890,5347C8954,5359 9041,5380 9085,5393C9129,5406 9221,5434 9289,5454C9975,5659 10544,6062 10737,6478C10862,6748 10841,7046 10673,7360C10585,7524 10582,7530 10524,7620C10292,7980 10206,8135 10107,8370C10030,8552 9992,8671 9955,8835C9941,8901 9922,8980 9915,9010C9907,9040 9892,9137 9880,9225C9848,9477 9853,9469 9723,9501C9585,9536 9421,9611 9280,9705C9160,9785 8997,9952 8903,10090C8768,10289 8677,10559 8650,10835C8645,10896 8638,10961 8637,10980C8635,10999 8632,10983 8632,10944C8630,10862 8652,10691 8680,10574C8746,10293 8910,10011 9120,9816C9284,9665 9476,9559 9706,9492L9805,9463L9802,9369C9788,8924 9599,8430 9310,8085C8999,7714 8613,7489 8140,7403C8004,7379 7676,7379 7520,7403C7389,7424 7207,7480 7058,7546C6537,7777 6128,8255 5951,8840C5831,9235 5831,9775 5950,10225C6103,10799 6376,11267 6812,11697C6976,11860 7104,11961 7327,12104C7345,12116 7367,12141 7376,12160C7518,12461 7782,12666 8117,12735C8237,12760 8447,12770 8635,12759C8807,12749 9021,12727 9038,12716C9050,12709 9066,12788 9085,12955C9100,13086 9162,13477 9193,13635C9201,13674 9205,13711 9203,13718C9199,13727 9070,13730 8597,13729C8266,13728 7973,13724 7945,13719Z" style="fill:rgb(45,159,141);fill-rule:nonzero;"/>
            <path d="M9741,13633C9724,13600 9661,13396 9624,13255C9604,13178 9577,13075 9564,13025C9506,12808 9406,12260 9375,11987C9341,11686 9328,11280 9353,11280C9499,11284 10273,11269 10375,11261C10959,11215 11613,11108 12180,10965C12589,10862 13193,10657 13480,10523C13521,10503 13589,10473 13630,10455C13671,10437 13719,10415 13735,10406C13784,10380 13796,10386 13844,10458C13911,10559 14124,10776 14248,10869C14399,10984 14600,11085 14763,11129C14897,11165 14982,11174 15172,11175C15319,11175 15360,11178 15360,11188C15360,11210 15266,11342 15172,11451C14692,12012 14013,12471 13100,12852C13020,12886 12926,12923 12890,12936C12854,12948 12787,12973 12740,12990C12355,13134 11668,13326 11200,13420C10762,13508 10570,13540 9850,13640C9753,13653 9752,13653 9741,13633ZM8315,12760C8053,12742 7859,12673 7665,12530C7606,12486 7500,12374 7462,12315C7409,12233 7351,12111 7335,12052C7309,11951 7299,11806 7311,11705C7349,11384 7533,11128 7831,10978C8015,10886 8300,10877 8490,10957C8537,10977 8587,10994 8603,10994C8618,10995 8630,10999 8630,11003C8630,11008 8659,11042 8693,11078C8831,11222 8906,11372 8949,11588C8970,11689 8983,11830 9000,12130C9012,12336 9026,12502 9041,12618C9049,12673 9049,12705 9042,12712C9028,12726 8838,12748 8626,12760C8526,12765 8441,12769 8435,12769C8430,12768 8376,12764 8315,12760ZM8303,12360C8437,12319 8548,12227 8630,12090C8800,11807 8643,11413 8315,11300C8179,11253 8046,11264 7904,11335C7762,11405 7662,11524 7616,11679C7596,11746 7595,11896 7614,11966C7656,12124 7763,12255 7912,12328C8039,12391 8166,12401 8303,12360Z" style="fill:rgb(249,176,29);fill-rule:nonzero;"/>
            <path d="M7736,12198C7693,12148 7620,12016 7620,11988C7621,11981 7632,12001 7646,12034C7677,12107 7710,12159 7757,12210C7776,12232 7790,12250 7787,12250C7784,12250 7761,12227 7736,12198ZM9334,11425C9334,11348 9336,11318 9337,11358C9339,11398 9339,11461 9337,11498C9335,11535 9334,11502 9334,11425ZM8591,11517C8571,11484 8494,11408 8435,11362C8418,11349 8425,11352 8450,11368C8498,11400 8589,11491 8609,11528C8627,11562 8614,11554 8591,11517ZM15330,11246C15379,11173 15383,11175 15172,11175C14870,11174 14721,11138 14460,11004C14257,10900 13966,10641 13843,10457C13800,10392 13796,10388 13766,10394C13749,10398 13795,10368 13870,10326C14630,9912 15074,9495 15334,8955C15412,8792 15470,8590 15470,8478C15470,8424 15502,8446 15561,8538C15730,8800 15861,9174 15891,9477C15941,9985 15716,10727 15368,11208C15305,11294 15277,11322 15330,11246ZM9423,11042C9340,11037 9343,10993 9446,10743C9611,10339 9866,9987 10244,9641C10411,9487 10385,9500 10553,9489C10836,9471 11635,9398 11805,9375C11866,9367 11969,9353 12035,9345C12101,9336 12288,9309 12450,9284C12612,9259 12772,9234 12805,9229C13498,9126 14402,8904 14755,8750C14964,8659 15103,8586 15281,8474C15371,8418 15408,8406 15395,8438C15392,8447 15378,8497 15365,8548C15321,8715 15181,9024 15102,9125C15093,9138 15058,9183 15025,9226C14339,10124 12430,10842 10255,11021C10113,11032 9518,11048 9423,11042Z" style="fill:rgb(238,58,41);fill-rule:nonzero;"/>
            <path d="M7309,12094C7290,12080 7232,12040 7180,12005C6942,11845 6658,11565 6460,11296C6009,10682 5795,9920 5876,9220C5955,8534 6332,7951 6910,7618C7063,7530 7344,7431 7520,7403C7676,7379 8004,7379 8140,7403C8797,7523 9314,7930 9603,8555C9724,8817 9794,9105 9802,9369L9805,9463L9706,9492C9476,9559 9284,9665 9120,9816C8913,10009 8757,10273 8685,10556C8661,10650 8632,10843 8628,10940C8625,10992 8623,10995 8600,10994C8586,10993 8537,10977 8490,10957C8299,10877 8015,10886 7831,10978C7590,11099 7428,11283 7352,11521C7298,11691 7292,11883 7335,12051C7344,12085 7349,12114 7347,12116C7345,12118 7328,12108 7309,12094Z" style="fill:rgb(249,233,192);fill-rule:nonzero;"/>
            <g transform="matrix(40,0,0,-40,40,19080)">
                <g transform="matrix(0.008477,-0.999964,0.999964,0.008477,-173.836638,353.848995)">
                    <text x="91.512px" y="264.583px" style="font-family:'Fraunces-9ptBlack', 'Fraunces';font-weight:900;font-size:68px;fill:rgb(254,254,254);">B</text>
                </g>
                <g transform="matrix(0.279383,-0.96018,0.96018,0.279383,-136.387172,241.838793)">
                    <text x="92.924px" y="211.783px" style="font-family:'Fraunces-9ptBlack', 'Fraunces';font-weight:900;font-size:68px;fill:rgb(254,254,254);">I</text>
                </g>
                <g transform="matrix(0.646209,-0.763161,0.763161,0.646209,-101.910056,139.295989)">
                    <text x="99.282px" y="179.563px" style="font-family:'Fraunces-9ptBlack', 'Fraunces';font-weight:900;font-size:68px;fill:rgb(254,254,254);">R</text>
                </g>
                <g transform="matrix(0.935392,-0.353614,0.353614,0.935392,-39.276765,57.22763)">
                    <text x="136.97px" y="136.098px" style="font-family:'Fraunces-9ptBlack', 'Fraunces';font-weight:900;font-size:68px;fill:rgb(254,254,254);">D</text>
                </g>
                <g transform="matrix(0.998766,-0.049669,0.049669,0.998766,-5.575206,9.62326)">
                    <text x="190.842px" y="116.99px" style="font-family:'Fraunces-9ptBlack', 'Fraunces';font-weight:900;font-size:68px;fill:rgb(254,254,254);">Y</text>
                </g>
                <g transform="matrix(0.987467,0.157828,-0.157828,0.987467,21.118967,-36.32556)">
                    <text x="239.277px" y="114.809px" style="font-family:'Fraunces-9ptBlack', 'Fraunces';font-weight:900;font-size:68px;fill:rgb(254,254,254);">F</text>
                </g>
                <g transform="matrix(0.95221,0.305445,-0.305445,0.95221,50.851862,-80.632517)">
                    <text x="283.102px" y="122.19px" style="font-family:'Fraunces-9ptBlack', 'Fraunces';font-weight:900;font-size:68px;fill:rgb(254,254,254);">I</text>
                </g>
                <g transform="matrix(0.862352,0.506309,-0.506309,0.862352,109.215511,-140.898381)">
                    <text x="313.741px" y="130.414px" style="font-family:'Fraunces-9ptBlack', 'Fraunces';font-weight:900;font-size:68px;fill:rgb(254,254,254);">N</text>
                </g>
            </g>
        </g>
    </g>
</svg>
